<?xml version="1.0" encoding="iso-8859-1"?>
<!-- Generator: Adobe Illustrator 21.0.0, SVG Export Plug-In . SVG Version: 6.00 Build 0)  -->
<svg version="1.1" id="Capa_1" xmlns="http://www.w3.org/2000/svg" xmlns:xlink="http://www.w3.org/1999/xlink" x="0px" y="0px"
	 viewBox="0 0 512 512" style="enable-background:new 0 0 512 512;" xml:space="preserve">
<g id="XMLID_601_">
	<g id="XMLID_602_">
		<g id="XMLID_603_">
			<path style="fill:#93A3AF;" d="M363.5,161h-13V82h13c5.523,0,10,4.477,10,10v59C373.5,156.523,369.023,161,363.5,161z"/>
			<path style="fill:#93A3AF;" d="M59.5,252h13v-39h-13c-5.523,0-10,4.477-10,10v19C49.5,247.523,53.977,252,59.5,252z"/>
			<path style="fill:#93A3AF;" d="M59.5,181h13V82h-13c-5.523,0-10,4.477-10,10v79C49.5,176.523,53.977,181,59.5,181z"/>
			<path style="fill:#93A3AF;" d="M59.5,314h13v-39h-13c-5.523,0-10,4.477-10,10v19C49.5,309.523,53.977,314,59.5,314z"/>
			<path style="fill:#7B8C98;" d="M69.918,484.5v-457c0-11.046,8.954-20,20-20h243.163c11.046,0,20,8.954,20,20v457
				c0,11.046-8.954,20-20,20H89.918C78.873,504.5,69.918,495.546,69.918,484.5z"/>
			<path id="XMLID_604_" style="fill:#627687;" d="M353.08,27.5v457c0,11.05-8.95,20-20,20H313.5c11.05,0,20-8.95,20-20v-457
				c0-11.05-8.95-20-20-20h19.58C344.13,7.5,353.08,16.45,353.08,27.5z"/>
			<rect x="69.918" y="58" style="fill:#A0D37D;" width="283.163" height="396"/>
			<rect x="333.5" y="58" style="fill:#84B75B;" width="19.582" height="396"/>
		</g>
		<g id="XMLID_605_">
			<path style="fill:#D3D8DF;" d="M296.852,195.684H126.148c-7.814,0-14.148-6.334-14.148-14.148v-22.703
				c0-7.814,6.334-14.148,14.148-14.148h170.703c7.814,0,14.148,6.334,14.148,14.148v22.703
				C311,189.35,304.666,195.684,296.852,195.684z"/>
		</g>
		<g id="XMLID_606_">
			<path id="XMLID_607_" style="fill:#FFCF64;" d="M462.5,258.48v68.35c0,67.72-44.51,127.39-109.42,146.68
				c-64.91-19.29-109.42-78.96-109.42-146.68v-68.35c0-4.09,2.48-7.76,6.27-9.28l99.42-39.97c2.4-0.96,5.07-0.96,7.46,0l99.42,39.97
				c2.04,0.82,3.69,2.25,4.79,4.05C461.97,254.79,462.5,256.59,462.5,258.48z"/>
			<path id="XMLID_608_" style="fill:#7B8C98;" d="M436.5,268.52v57.6c0,28.06-8.87,54.78-25.64,77.26
				c-14.88,19.95-34.72,34.88-57.78,43.58c-23.06-8.7-42.89-23.63-57.77-43.58c-16.78-22.48-25.65-49.2-25.65-77.26v-57.6
				l83.42-33.54L436.5,268.52z"/>
			<path id="XMLID_609_" style="fill:#627687;" d="M436.5,268.52v57.6c0,28.06-8.87,54.78-25.64,77.26
				c-14.88,19.95-34.72,34.88-57.78,43.58V234.98L436.5,268.52z"/>
			<g id="XMLID_610_">
				<path id="XMLID_611_" style="fill:#74E2CD;" d="M462.5,258.48v64.17l-74.49,73.43c-4.91,4.84-11.31,7.26-17.71,7.26
					c-6.4,0-12.8-2.42-17.72-7.26l-48.53-47.84c-3.94-3.88-3.98-10.21-0.1-14.15l21.38-21.69c3.88-3.94,10.21-3.98,14.15-0.11
					l30.82,30.39l90.72-89.43C461.97,254.79,462.5,256.59,462.5,258.48z"/>
			</g>
		</g>
	</g>
	<g id="XMLID_612_">
		<path id="XMLID_613_" d="M191.918,26.833c-4.143,0-7.5,3.357-7.5,7.5s3.357,7.5,7.5,7.5h39.164c4.143,0,7.5-3.357,7.5-7.5
			s-3.357-7.5-7.5-7.5H191.918z"/>
		<path id="XMLID_614_" d="M104.5,158.832v22.703c0,11.937,9.712,21.648,21.648,21.648h170.703c11.937,0,21.648-9.712,21.648-21.648
			v-22.703c0-11.937-9.712-21.648-21.648-21.648H126.148C114.212,137.184,104.5,146.896,104.5,158.832z M119.5,158.832
			c0-3.666,2.982-6.648,6.648-6.648h170.703c3.666,0,6.648,2.982,6.648,6.648v22.703c0,3.666-2.982,6.648-6.648,6.648H126.148
			c-3.666,0-6.648-2.982-6.648-6.648V158.832z"/>
		<path id="XMLID_617_" d="M146.323,177.684l0.109,0.001c0.023,0,0.046,0,0.068,0c4.111,0,7.462-3.314,7.499-7.433
			c0.037-4.143-3.291-7.53-7.433-7.567l-0.109-0.001c-0.023,0-0.046,0-0.068,0c-4.111,0-7.462,3.314-7.499,7.433
			C138.854,174.259,142.182,177.646,146.323,177.684z"/>
		<path id="XMLID_618_" d="M174.433,177.684l0.109,0.001c0.023,0,0.046,0,0.068,0c4.111,0,7.462-3.314,7.499-7.433
			c0.037-4.143-3.291-7.53-7.433-7.567l-0.109-0.001c-0.023,0-0.046,0-0.068,0c-4.111,0-7.462,3.314-7.499,7.433
			C166.963,174.259,170.291,177.646,174.433,177.684z"/>
		<path id="XMLID_619_" d="M202.542,177.684l0.109,0.001c0.023,0,0.046,0,0.068,0c4.111,0,7.462-3.314,7.499-7.433
			c0.037-4.143-3.291-7.53-7.433-7.567l-0.109-0.001c-0.023,0-0.046,0-0.068,0c-4.111,0-7.462,3.314-7.499,7.433
			C195.072,174.259,198.4,177.646,202.542,177.684z"/>
		<path id="XMLID_620_" d="M230.651,177.684l0.109,0.001c0.023,0,0.046,0,0.068,0c4.111,0,7.462-3.314,7.499-7.433
			c0.037-4.143-3.291-7.53-7.433-7.567l-0.109-0.001c-0.023,0-0.046,0-0.068,0c-4.111,0-7.462,3.314-7.499,7.433
			C223.182,174.259,226.51,177.646,230.651,177.684z"/>
		<path id="XMLID_621_" d="M258.762,177.684l0.11,0.001c0.022,0,0.045,0,0.067,0c4.111,0,7.462-3.314,7.499-7.434
			c0.036-4.142-3.292-7.529-7.434-7.566l-0.11-0.001c-0.022,0-0.045,0-0.067,0c-4.111,0-7.462,3.314-7.499,7.434
			C251.292,174.259,254.62,177.646,258.762,177.684z"/>
		<path id="XMLID_622_" d="M146.5,117.092c4.143,0,7.5-3.357,7.5-7.5s-3.357-7.5-7.5-7.5h-23.7c-4.143,0-7.5,3.357-7.5,7.5
			s3.357,7.5,7.5,7.5H146.5z"/>
		<path id="XMLID_623_" d="M215.082,214.284H122.8c-4.143,0-7.5,3.357-7.5,7.5s3.357,7.5,7.5,7.5h92.282c4.143,0,7.5-3.357,7.5-7.5
			S219.225,214.284,215.082,214.284z"/>
		<path id="XMLID_624_" d="M210.582,243.282c0-4.143-3.357-7.5-7.5-7.5H122.8c-4.143,0-7.5,3.357-7.5,7.5s3.357,7.5,7.5,7.5h80.282
			C207.225,250.782,210.582,247.425,210.582,243.282z"/>
		<path id="XMLID_625_" d="M191.918,402.5h23.164c4.143,0,7.5-3.357,7.5-7.5s-3.357-7.5-7.5-7.5h-23.164c-4.143,0-7.5,3.357-7.5,7.5
			S187.775,402.5,191.918,402.5z"/>
		<path id="XMLID_626_" d="M122.8,402.5h46.141c4.143,0,7.5-3.357,7.5-7.5s-3.357-7.5-7.5-7.5H122.8c-4.143,0-7.5,3.357-7.5,7.5
			S118.657,402.5,122.8,402.5z"/>
		<path id="XMLID_627_" d="M122.8,375.625h11.85c4.143,0,7.5-3.357,7.5-7.5s-3.357-7.5-7.5-7.5H122.8c-4.143,0-7.5,3.357-7.5,7.5
			S118.657,375.625,122.8,375.625z"/>
		<path id="XMLID_628_" d="M459.028,242.239l-98.446-39.578V168.5h2.918c9.649,0,17.5-7.851,17.5-17.5V92
			c0-9.649-7.851-17.5-17.5-17.5h-2.918v-47c0-15.163-12.337-27.5-27.5-27.5H283.33c-4.143,0-7.5,3.357-7.5,7.5s3.357,7.5,7.5,7.5
			h49.752c6.893,0,12.5,5.607,12.5,12.5v23H77.418v-23c0-6.893,5.607-12.5,12.5-12.5H250.67c4.143,0,7.5-3.357,7.5-7.5
			s-3.357-7.5-7.5-7.5H89.918c-15.163,0-27.5,12.337-27.5,27.5v47H59.5C49.851,74.5,42,82.351,42,92v79
			c0,9.649,7.851,17.5,17.5,17.5h2.918v17H59.5c-9.649,0-17.5,7.851-17.5,17.5v19c0,9.649,7.851,17.5,17.5,17.5h2.918v8H59.5
			c-9.649,0-17.5,7.851-17.5,17.5v19c0,9.649,7.851,17.5,17.5,17.5h2.918v38.17c0,4.143,3.357,7.5,7.5,7.5s7.5-3.357,7.5-7.5V65.5
			h268.164v137.16l-98.446,39.579c-6.666,2.679-10.973,9.053-10.973,16.237v68.354c0,34.854,11.016,68.045,31.856,95.983
			c6.476,8.682,13.711,16.598,21.608,23.686H77.418v-54.17c0-4.143-3.357-7.5-7.5-7.5s-7.5,3.357-7.5,7.5v92.17
			c0,15.163,12.337,27.5,27.5,27.5h243.164c15.163,0,27.5-12.337,27.5-27.5v-5.506c19.252-6.452,36.869-16.348,52.427-29.486
			c3.165-2.673,3.563-7.405,0.892-10.569c-2.675-3.165-7.404-3.563-10.569-0.892c-14.834,12.527-31.729,21.813-50.249,27.624
			c-29.373-9.213-54.593-27.097-73.039-51.825c-18.894-25.327-28.88-55.417-28.88-87.015v-68.354c0-1.026,0.615-1.937,1.567-2.319
			l99.418-39.97c0.601-0.241,1.265-0.241,1.865,0l95.125,38.244l-8.188,8.071c-0.505-0.374-1.052-0.702-1.653-0.944l-83.418-33.537
			c-1.795-0.721-3.801-0.721-5.596,0l-83.419,33.537c-2.841,1.143-4.702,3.897-4.702,6.959v57.602
			c0,29.688,9.382,57.956,27.132,81.75c15.649,20.977,36.791,36.921,61.14,46.108c1.696,0.639,3.599,0.639,5.295,0
			c24.348-9.188,45.489-25.131,61.139-46.108c12.028-16.125,20.17-34.152,24.229-53.589l13.166-12.979
			c-2.719,26.845-12.927,52.771-29.429,74.234c-2.525,3.283-1.91,7.992,1.374,10.517c3.284,2.526,7.993,1.908,10.517-1.374
			C458.183,396.77,470,362.02,470,326.831v-68.354C470,251.292,465.693,244.919,459.028,242.239z M59.5,173.5
			c-1.379,0-2.5-1.121-2.5-2.5V92c0-1.379,1.121-2.5,2.5-2.5h2.918v84H59.5z M59.5,244.5c-1.379,0-2.5-1.121-2.5-2.5v-19
			c0-1.379,1.121-2.5,2.5-2.5h2.918v24H59.5z M59.5,306.5c-1.379,0-2.5-1.121-2.5-2.5v-19c0-1.379,1.121-2.5,2.5-2.5h2.918v24H59.5z
			 M333.082,497H89.918c-6.893,0-12.5-5.607-12.5-12.5v-23h230.915c0.277,0,0.549-0.017,0.818-0.047
			c11.255,7.311,23.461,13.204,36.431,17.548v5.499C345.582,491.393,339.975,497,333.082,497z M382.744,390.739
			c-3.336,3.289-7.756,5.101-12.444,5.101c-4.688,0-9.112-1.813-12.454-5.101l-48.533-47.843c-0.982-0.967-0.99-2.558-0.021-3.542
			l21.383-21.692c0.971-0.982,2.562-0.992,3.541-0.031l30.819,30.39c2.919,2.878,7.61,2.879,10.531,0L455,269.716v49.796
			L382.744,390.739z M363.5,89.5c1.379,0,2.5,1.121,2.5,2.5v59c0,1.379-1.121,2.5-2.5,2.5h-2.918v-64H363.5z M404.845,398.9
			c-13.362,17.911-31.214,31.698-51.763,40.008c-20.549-8.31-38.401-22.097-51.764-40.008
			c-15.803-21.184-24.155-46.352-24.155-72.781v-52.533l75.919-30.522L429,273.586V274c0,0.091,0.01,0.18,0.014,0.27l-58.713,57.877
			l-25.565-25.208c-6.883-6.76-17.986-6.672-24.746,0.196l-21.383,21.692c-6.775,6.88-6.693,17.985,0.178,24.753l48.536,47.846
			c6.171,6.07,14.332,9.413,22.979,9.413c8.655,0,16.814-3.345,22.976-9.419l24.497-24.148
			C414.258,384.83,409.949,392.058,404.845,398.9z"/>
	</g>
</g>
<g>
</g>
<g>
</g>
<g>
</g>
<g>
</g>
<g>
</g>
<g>
</g>
<g>
</g>
<g>
</g>
<g>
</g>
<g>
</g>
<g>
</g>
<g>
</g>
<g>
</g>
<g>
</g>
<g>
</g>
</svg>
